<svg width="449" height="432" viewBox="0 0 449 432" fill="none" xmlns="http://www.w3.org/2000/svg">
<path d="M46.5061 169.224C46.7364 169.378 47.4876 169.15 48.1925 168.693C49.3571 167.946 49.7406 168.069 52.1046 169.714C56.986 172.973 72.4917 185.049 72.8301 185.739C72.9993 186.184 73.0313 187.133 72.8329 187.929C72.6346 188.724 72.7275 189.383 72.9881 189.292C73.6014 189.171 79.9553 180.951 79.5869 180.705C79.4948 180.643 78.5749 180.825 77.5631 181.143L75.7695 181.736L64.2402 172.977C57.9305 168.168 52.5725 163.928 52.4187 163.56C51.988 162.609 55.8929 158.057 58.6052 156.288C61.1489 154.672 63.649 154.817 66.5962 156.784C71.2933 159.921 71.8969 164.102 68.4227 169.605C66.8768 172.02 66.8465 172.265 67.8884 171.502C68.7005 170.983 70.4641 170.835 72.6575 171.04C77.5045 171.558 84.2671 170.903 88.4368 169.444C91.4567 168.411 93.6172 166.871 92.7883 166.317C92.6501 166.225 90.35 166.479 87.7125 166.839C84.9372 167.307 80.597 167.326 77.4525 166.95L71.9919 166.353L72.894 164.304C74.8666 159.854 73.4802 155.149 69.4738 152.474C65.2833 149.676 61.0058 150.798 56.2582 155.914C52.8583 159.611 46.0456 168.917 46.5061 169.224Z" fill="black"/>
<path d="M33.3933 192.754C32.904 193.886 33.4423 194.975 34.0545 194.058C34.2076 193.828 34.8976 193.693 35.5878 193.756C36.6462 193.866 38.8576 196.138 46.7371 205.177C52.1744 211.393 56.7828 217.055 56.9678 217.775C57.3532 219.292 56.175 221.356 54.5653 221.872C53.339 222.313 26.8935 218.444 25.6502 217.614C25.1897 217.307 24.8511 216.418 24.8346 215.545C24.8312 212.957 23.8359 214.149 23.1504 217.669L22.4033 221.081L26.1033 224.015C28.0992 225.613 33.1652 229.393 37.2794 232.405C41.4241 235.372 44.6636 237.999 44.449 238.121C44.2345 238.242 38.6378 239.146 31.9676 240.062C25.2973 240.978 19.2558 241.85 18.5198 241.955C17.2932 242.197 17.1707 242.38 16.2856 245.7C15.2934 249.28 15.8467 250.246 17.4386 247.862C18.0815 246.899 18.6946 246.579 19.6457 246.75C21.3024 247.061 45.2229 255.21 46.0057 255.732C46.282 255.917 46.6206 256.806 46.8059 257.725C47.2232 260.191 47.8817 259.504 48.8734 255.526C50.0025 251.043 49.8939 250.108 48.4857 252.218C47.904 253.089 46.9848 253.867 46.4788 253.927C45.4974 254.001 22.9888 246.53 22.8961 246.07C22.8653 245.917 29.0446 244.938 36.7269 243.903C44.3786 242.913 50.7265 241.781 50.8181 241.445C50.9706 240.818 47.7466 238.267 33.7767 227.879L27.1141 222.9L39.7387 224.833C46.6569 225.939 52.5629 226.965 52.7931 227.119C53.0694 227.303 53.531 228.407 53.7625 229.556C54.3334 232.191 54.5783 231.824 55.997 226.01C56.5918 223.424 57.5541 220.487 58.0283 219.478C60.7358 214.126 61.2403 212.872 60.8719 212.626C60.6417 212.472 60.1513 212.808 59.784 213.358C58.4064 215.421 57.6701 215.327 55.2436 212.779C54.0303 211.505 53.001 210.155 52.9544 209.726C52.8767 208.945 57.9237 198.195 59.3626 196.04C59.7911 195.398 60.9411 195.171 63.0885 195.345C66.8617 195.677 67.5831 196.093 67.2481 197.99C66.8831 200.332 67.7112 200.288 68.8123 197.841C69.3322 196.664 70.3874 194.385 71.1829 192.795C71.9937 191.281 72.4213 189.843 72.191 189.69C71.9608 189.536 71.5929 189.688 71.3786 190.009C70.6439 191.109 68.2974 191.134 51.8245 190.079C36.9314 189.151 35.6585 189.162 34.8165 190.324C34.2806 191.027 33.6225 192.112 33.3933 192.754ZM48.5175 194.434C53.4409 194.738 57.5671 195.239 57.5828 195.514C57.7678 196.235 51.8479 207.993 51.4031 207.961C50.805 207.959 39.0855 194.5 39.2998 194.179C39.4223 193.996 43.5479 194.099 48.5175 194.434Z" fill="black"/>
<path d="M69.6892 140.292C69.9195 140.446 70.6555 140.34 71.3146 140.051C71.9737 139.762 72.986 139.841 73.5846 140.241C74.6898 140.979 89.7254 157.05 91.9683 159.874C92.8131 160.902 92.9369 161.713 92.4936 162.876C92.188 163.733 92.0664 164.513 92.2045 164.605C92.5729 164.851 108.275 150.807 109.576 149.157C110.234 148.271 109.911 147.658 106.578 143.377C104.565 140.707 102.707 138.605 102.507 138.604C101.48 138.846 102.05 140.685 104.171 144.289L106.569 148.276L105.161 150.386C103.201 153.32 98.1618 157.976 97.1646 157.775C96.3208 157.543 78.4134 138.493 77.4602 136.73C77.1528 136.193 77.2127 135.106 77.5489 134.204C77.9006 133.378 78.0223 132.597 77.8381 132.474C77.6539 132.352 76.0758 133.618 74.345 135.313C72.6142 137.008 70.7761 138.764 70.2245 139.191C69.719 139.649 69.505 140.169 69.6892 140.292Z" fill="black"/>
<path d="M95.5638 117.788C95.7941 117.941 96.4228 117.897 96.9901 117.745C97.5573 117.594 98.3242 117.642 98.6926 117.888C99.7057 118.564 113.86 140.543 114.229 141.983C114.445 142.857 114.232 143.576 113.481 144.202C112.776 144.858 112.685 145.195 113.114 145.349C113.528 145.427 117.82 142.988 122.769 139.863C127.642 136.753 132.378 133.948 133.19 133.629C135.336 132.808 135.366 132.563 133.829 130.078C133.076 128.913 131.816 126.613 131.001 124.941C130.17 123.194 129.341 122.043 128.973 122.195C128.099 122.606 128.192 123.464 129.869 127.434C131.131 130.53 131.208 131.311 130.443 132.458C129.586 133.742 121.051 139.644 119.595 139.931C118.905 140.067 111.144 128.455 111.112 127.307C111.158 126.94 112.429 125.933 113.993 124.987L116.812 123.357L119.023 124.833C120.22 125.632 121.356 126.125 121.509 125.896C121.662 125.667 120.924 124.378 119.895 123.028C118.881 121.755 117.482 119.76 116.852 118.61C115.453 116.218 114.657 116.813 115.534 119.587L116.15 121.456L113.484 123.455C112.075 124.569 110.527 125.392 110.113 125.314C109.653 125.205 107.809 122.781 105.996 119.913C103.26 115.634 102.768 114.576 103.38 113.858C104.835 112.178 113.05 107.653 114.108 107.962C114.707 108.162 116.196 109.422 117.44 110.849C120.205 113.888 121.095 114.549 121.615 113.77C121.922 113.311 116.221 105.395 114.886 104.504C114.702 104.381 112.878 105.417 110.932 106.836C108.986 108.254 104.711 111.167 101.432 113.287C94.8273 117.495 94.9652 117.388 95.5638 117.788Z" fill="black"/>
<path d="M136.42 94.2894C136.466 94.5192 137.218 94.6897 138.015 94.6918C140.055 94.7279 140.101 94.7587 144.812 108.444C149.908 123.248 149.784 122.636 148.192 124.224C147.502 124.957 146.997 125.614 147.135 125.706C147.734 126.106 163.217 120.666 165.377 119.325C168.733 117.19 170.892 113.858 170.872 110.597C170.88 105.299 166.781 101.567 161.367 101.997C159.849 102.177 158.622 102.219 158.684 102.127C158.745 102.036 159.419 101.425 160.246 100.784C162.345 98.9373 163.093 96.7192 162.461 93.7777C162.059 91.5872 161.614 90.9582 159.864 89.7899C157.331 88.0988 155.321 87.8178 151.596 88.7111C147.671 89.6039 136.312 93.7533 136.42 94.2894ZM149.436 90.8489C154.204 89.7899 156.752 91.3585 157.939 96.0622C158.757 99.3257 157.532 101.359 153.639 103.201C150.083 104.937 150.008 105.947 153.534 104.854C159.084 103.124 163.349 104.513 165.011 108.606C166.365 111.963 166.23 114.259 164.546 116.781C163.291 118.661 162.448 119.225 159.382 120.426C157.344 121.186 155.366 121.656 154.89 121.471C154.153 121.178 148.259 105.177 145.424 95.8601C144.285 92.1824 144.438 91.9531 149.436 90.8489Z" fill="black"/>
<path d="M174.371 90.5931C172.078 96.2214 173.023 104.079 176.48 108.574C179.107 111.919 183.942 114.55 187.853 114.775C200.568 115.575 209.895 106.092 208.131 94.175C207.311 88.523 205.405 85.3944 200.846 82.3505C197.623 80.1983 196.718 79.859 193.834 79.5909C185.49 78.9254 177.184 83.5882 174.371 90.5931ZM183.272 83.1453C187.103 80.7977 192.64 81.3791 196.34 84.5125C197.4 85.4187 199.212 87.4906 200.364 89.0555C204.113 94.2101 205 103.552 202.214 107.725C199.826 111.301 194.415 113.323 190.073 112.347C182.755 110.643 176.408 100.306 177.655 92.0565C178.187 88.368 180.329 84.9594 183.272 83.1453Z" fill="black"/>
<path d="M215.368 78.6524C215.46 78.9129 216.074 79.3892 216.857 79.7129C217.716 80.0214 218.284 80.666 218.362 81.2481C218.44 82.2282 216.992 101.348 216.401 106.92C216.099 109.966 216.022 110.18 214.688 110.482C211.653 111.24 213.463 111.918 220.258 112.61C231.149 113.65 235.886 112.637 240.466 108.27C242.672 106.163 244.721 101.698 245.115 98.1164C245.54 94.6879 244.536 89.311 243.061 86.9338C241.294 84.0964 236.735 81.0526 232.316 79.8923C228.557 78.841 215.213 77.8864 215.368 78.6524ZM226.98 80.3067C231.367 80.9156 236.355 83.9147 238.23 87.0892C239.982 90.0489 240.555 94.2764 239.903 99.3426C238.824 107.439 234.06 111.683 226.1 111.539C223.861 111.502 221.806 111.191 221.468 110.899C220.869 110.3 222.902 81.8268 223.652 80.6039C223.897 80.2371 225.384 80.1033 226.98 80.3067Z" fill="black"/>
<path d="M253.915 83.6443C254.79 84.2285 255.652 86.7265 257.317 93.8048C258.551 98.9373 259.6 103.748 259.709 104.483C259.786 105.264 259.268 108.034 258.536 110.727L257.162 115.577L255.261 116.031C254.234 116.273 253.467 116.623 253.513 116.853C253.622 117.389 263.885 120.066 264.191 119.607C264.344 119.378 263.868 118.795 263.131 118.303C261.704 117.35 261.718 116.63 263.611 109.408L264.389 106.348L271.097 99.2926C278.51 91.5805 278.877 91.2293 280.686 90.7136C281.33 90.5469 281.867 90.2421 281.836 90.089C281.743 89.6294 274.272 87.5576 274.027 87.9244C273.874 88.1536 274.519 88.7831 275.394 89.3673C276.867 90.3512 276.913 90.581 276.148 91.7272C275.199 93.1486 265.091 103.701 264.585 103.761C264.201 103.837 260.454 88.2093 260.498 86.8468C260.528 86.2038 261.141 85.8839 262.583 85.7194C265.282 85.4663 264.514 85.0202 258.577 83.4425C253.591 82.0358 251.658 82.1377 253.915 83.6443Z" fill="black"/>
<path d="M297.378 109.28C297.672 111.333 298.764 113.587 300.994 117.13C304.822 123.067 305.838 125.336 305.734 127.587C305.525 131.69 301.479 134.358 297.335 133.183C294.174 132.331 290.227 128.967 289.702 126.76C289.209 124.707 289.956 121.892 291.67 119.324C292.864 117.536 292.801 116.234 291.545 117.119C291.131 117.439 289.722 118.951 288.42 120.601C286.154 123.397 286.047 123.657 286.448 125.45C287.714 130.537 295.836 135.827 302.048 135.6C305.852 135.488 307.875 134.254 309.757 130.936C311.058 128.49 311.149 127.954 310.378 124.92C309.838 122.836 308.299 119.754 306.178 116.548C304.333 113.725 302.672 110.627 302.44 109.677C301.098 104.207 306.862 101.758 312.39 105.448C316.535 108.216 316.937 110.407 314.26 115.315C313.296 117.058 312.731 118.603 313.007 118.787C313.238 118.941 314.678 117.781 316.117 116.224C320.559 111.367 319.972 108.854 313.293 104.394C308.871 101.442 304.759 100.619 301.417 102.033C298.213 103.341 296.866 105.757 297.378 109.28Z" fill="black"/>
<path d="M321.081 123.053C321.556 123.238 323.058 122.385 324.697 121.026C329.339 117.165 329.799 117.074 333.529 119.565C336.108 121.287 336.707 121.885 336.509 122.681C336.28 123.722 321.689 142.484 319.636 144.362C318.365 145.568 317.46 145.627 315.128 144.733C312.78 143.762 312.981 144.957 315.483 146.694C316.819 147.585 319.229 149.46 320.902 150.842C324.418 153.853 325.569 154.024 323.648 151.217C322.373 149.437 322.357 149.162 323.459 147.511C326.092 143.568 340.562 125.984 341.16 125.985C342.28 126.004 347.025 130.365 347.225 131.56C347.349 132.173 346.555 134.559 345.453 136.807C344.306 139.223 343.634 141.227 343.911 141.61C344.233 142.025 345.198 140.879 347.831 136.936L351.351 131.663L343.752 125.793C339.637 122.582 334.632 118.511 332.728 116.776C330.333 114.58 329.136 113.781 328.829 114.04C328.553 114.254 326.578 116.315 324.326 118.591C320.895 122.134 320.421 122.745 321.081 123.053Z" fill="black"/>
<path d="M338.166 160.778C337.252 165.935 339.667 171.393 344.272 174.467C347.542 176.65 349.996 177.162 353.554 176.422C356.881 175.726 359.624 173.912 367.053 167.47C374.116 161.38 374.606 161.045 376.018 161.722C378.013 162.723 377.781 161.574 375.4 158.658C372.758 155.436 371.7 155.127 372.715 157.794C373.069 158.759 373.071 159.953 372.703 160.504C371.51 162.292 359.407 172.242 356.709 173.689C353.292 175.517 349.595 175.37 346.556 173.34C344.3 171.834 342.302 168.843 341.946 166.484C341.636 164.355 342.43 160.973 343.746 159.002C345.032 157.076 358.65 145.155 360.076 144.714C360.536 144.624 361.641 144.964 362.47 145.517C363.345 146.101 364.127 146.425 364.28 146.196C364.525 145.829 357.321 137.373 356.831 137.509C356.677 137.54 356.601 138.152 356.71 138.887C356.864 139.653 356.697 140.602 356.391 141.06C356.115 141.473 352.776 144.48 348.992 147.655C341.699 153.79 338.759 157.396 338.166 160.778Z" fill="black"/>
<path d="M356.183 190.64C360.549 198.859 362.131 200.976 365.861 203.467C369.914 206.172 373.779 206.764 378.747 205.507C383.377 204.356 387.116 201.748 389.595 198.034C393.391 192.348 392.478 185.64 386.468 175.196C382.871 169.016 381.842 167.865 382.275 170.607C382.538 172.506 382.492 172.476 368.362 180.277L356.959 186.585L354.964 185.584L352.969 184.584L356.183 190.64ZM372.047 183.533C379.97 179.145 385.15 176.571 385.565 176.848C387.683 178.262 389.532 184.866 388.909 188.891C388.209 193.131 385.407 196.828 380.993 199.45C372.35 204.418 365.033 202.913 360.36 195.153C359.284 193.374 358.576 191.642 358.821 191.275C359.066 190.908 364.982 187.433 372.047 183.533Z" fill="black"/>
<path d="M370.798 220.281C371.921 223.086 372.937 225.355 373.167 225.31C373.367 225.31 373.565 224.714 373.625 224.025C373.716 223.29 373.945 222.449 374.19 222.082C374.558 221.532 398.075 212.242 400.513 211.682C400.897 211.607 401.91 212.084 402.755 212.715C403.568 213.391 404.336 213.837 404.428 213.699C404.703 213.287 400.547 203.353 400.118 203.397C399.857 203.488 399.751 203.947 399.843 204.407C399.952 204.943 399.723 205.785 399.355 206.335C398.988 206.885 392.902 209.517 385.574 212.314C372.833 217.132 372.45 217.207 371.114 216.117C370.315 215.517 369.501 215.04 369.271 215.085C369.041 215.131 369.75 217.46 370.798 220.281Z" fill="black"/>
<path d="M377.104 238.875C376.104 248.151 382.189 257.185 390.811 259.23C394.999 260.236 400.688 259.394 404.473 257.215C408.58 254.853 411.948 250.008 412.372 245.783C413.842 232.314 402.418 221.902 389.539 225.037C385.016 226.127 382.09 228.217 379.457 232.16C377.896 234.498 377.468 235.737 377.104 238.875ZM384.475 234.118C389.989 229.248 396.474 227.413 401.921 229.127C405.588 230.316 407.63 232.144 409.23 235.731C411.03 239.717 410.359 243.114 407.006 247.438C399.749 256.911 386.086 258.329 381.091 250.155C379.369 247.348 378.921 244.132 379.76 241.179C380.707 237.966 381.472 236.82 384.475 234.118Z" fill="black"/>
</svg>
