<svg width="52" height="56" viewBox="0 0 52 56" fill="none" xmlns="http://www.w3.org/2000/svg">
<path d="M50.7707 28.0763C50.7707 42.5307 39.6343 54.1623 26.0002 54.1623C12.3662 54.1623 1.22974 42.5307 1.22974 28.0763C1.22974 13.6219 12.3662 1.99023 26.0002 1.99023C39.6343 1.99023 50.7707 13.6219 50.7707 28.0763Z" fill="white" stroke="white" stroke-width="2"/>
<path d="M39.5926 29.3595C39.9832 28.969 39.9832 28.3358 39.5926 27.9453L33.2287 21.5813C32.8381 21.1908 32.205 21.1908 31.8145 21.5813C31.4239 21.9719 31.4239 22.605 31.8145 22.9956L37.4713 28.6524L31.8145 34.3093C31.4239 34.6998 31.4239 35.3329 31.8145 35.7235C32.205 36.114 32.8381 36.114 33.2287 35.7235L39.5926 29.3595ZM12.0413 29.6524H38.8855V27.6524H12.0413V29.6524Z" fill="black"/>
</svg>
