<svg width="492" height="1141" viewBox="0 0 492 1141" fill="none" xmlns="http://www.w3.org/2000/svg">
<path d="M285.908 23.8111C232.794 79.9453 214.487 116.12 212.205 169.014C211.284 188.667 214.091 202.326 224.637 232.122L233.064 255.599L235.149 302.154C237.163 346.094 240.224 374.957 246.242 405.208C247.568 412.203 248.535 417.9 248.211 417.909C247.887 417.919 239.157 407.044 228.734 393.601L209.748 369.442L209.178 354.574C208.717 337.741 205.343 327.042 195.857 312.263C183.829 293.468 154.647 270.089 130.536 260.142C111.182 252.185 96.5223 249.82 72.7022 250.496C47.9098 251.199 32.6053 254.904 11.966 265.139C-1.79059 272.071 -3.62321 276.212 7.39563 275.9C32.026 275.202 55.1459 290.411 91.9542 331.729C121.224 364.265 131.968 371.647 157.218 375.838C168.624 377.805 173.003 377.844 185.598 375.851C193.835 374.636 201.577 373.108 202.86 372.581C204.463 371.882 211.654 379.856 226.775 399.054C238.539 414.095 248.651 428.038 249.186 429.822C249.726 431.769 250.599 434.034 251.274 434.996C251.944 435.795 253.91 442.445 255.565 449.595C266.177 493.618 278.063 530.899 310.727 622.22C329.875 675.978 343.282 715.506 343.381 719.101C343.537 724.822 321.287 705.826 308.011 688.865C292.382 668.863 289.979 664.025 289.63 651.277C288.945 626.272 280.583 593.307 270.157 573.812C255.109 545.453 235.23 530.151 190.316 512.615C137.206 491.877 120.868 481.546 106.972 459.696C95.7942 442.349 95.1048 446.784 103.53 482.037C118.936 547.187 142.331 590.194 176.126 616.223C191.693 628.048 197.279 630.67 233.965 643.86C284.731 661.884 281.931 660.327 294.766 678.936C306.416 695.779 327.604 717.423 340.148 725.408C347.241 729.787 347.749 730.59 351.699 744.544C357.975 766.447 368.136 811.791 372.008 834.743C376.846 863.392 378.865 937.099 375.547 964.017C368.025 1026.87 348.239 1080.1 316.976 1122.86C311.038 1131.04 306.207 1138.21 306.234 1139.19C306.31 1141.97 309.686 1140.89 312.819 1136.88C342.767 1099.39 363.569 1053.66 374.605 1000.68C382.083 965.794 382.746 954.49 381.562 899.405L380.459 847.261L386.162 842.356C397.403 832.387 411.712 804.177 414.159 786.934C415.655 776.424 421.107 768.255 441.393 745.109C482.915 697.971 490.124 676.995 480.616 631.796C473.163 596.515 473.583 588.162 484.097 563.493C487.911 554.717 491.234 545.79 491.334 543.498C491.717 539.725 491.222 539.412 485.555 539.736C477.3 540.297 465.06 549.313 445.819 569.158C427.681 587.828 418.762 599.693 412.175 613.782C396.708 647.096 394.688 697.693 406.372 763.112C410.014 783.617 410.059 785.251 407.87 794.145C404.501 807.325 395.735 824.747 387.406 834.47C383.638 838.993 380.009 842.694 379.199 842.717C378.551 842.735 377.3 838.518 376.509 833.307C369.728 787.049 352.121 724.415 323.484 643.938C302.581 585.323 301.843 582.073 302.287 562.76C302.776 545.082 304.759 534.558 311.833 514.567L316.35 501.845L328.652 495.118C367.176 474.726 397.793 443.926 410.397 412.657C420.267 388.17 424.022 353.553 420.323 319.147C417.546 294.692 410.611 254.654 408.249 251.286C406.21 247.909 404.351 251.069 401.414 262.274C397.914 276.603 388.68 294.693 375.718 312.888C369.631 321.566 358.7 336.923 351.519 347.104C324.664 384.993 315.013 417.487 312.6 477.418C311.809 495.922 310.849 502.328 307.832 510.592C302.69 524.149 298.185 543.25 296.91 555.88L296.057 566.208L288.67 545.155C268.055 485.223 253.26 424.636 245.172 366.148C243.536 353.764 241.119 324.719 239.997 301.526L237.87 259.388L246.527 249.82C281.795 211.201 289.375 185.962 291.545 99.3785C292.582 60.2587 297.956 31.4838 307.812 12.3951C312.125 4.095 312.517 0.649157 309.115 0.745644C308.466 0.764021 298.049 11.1999 285.908 23.8111ZM294.697 30.9219C289.041 49.4008 287.094 67.1203 285.381 111.166C282.795 182.55 275.211 207.626 246.758 240.49L239.528 248.873L240.053 232.503C241.532 185.847 255.758 113.151 272.64 66.3851C278.373 50.6846 278.932 47.3977 276.339 47.4712C272.45 47.5815 256.629 97.588 248.125 136.429C242.508 162.267 236.371 204.639 234.94 229.376L234.002 242.488L227.321 223.541C223.627 213.014 219.835 198.892 218.999 192.047C216.962 176.893 217.898 151.843 221.204 136.374C224.65 120.084 238.126 91.0797 250.611 73.225C261.218 57.877 296.414 16.6437 297.747 17.9143C298.084 18.3954 296.62 24.1615 294.697 30.9219ZM114.953 259.602C141.774 267.837 169.017 285.547 183.8 304.264C196.563 320.258 201.926 332.536 203.179 348.693L204.37 362.562L191.652 348.202C174.578 328.732 145.635 302.238 130.603 292.197C109.954 278.389 96.1766 272.728 78.6045 270.61C67.2213 269.46 61.8963 270.429 61.9858 273.698C62.0306 275.332 64.4791 275.917 70.6367 275.742C96.4013 275.012 125.368 290.546 160.823 323.888C169.644 332.143 182.159 345.036 188.689 352.538C198.725 363.703 200.255 366.276 198.18 367.48C192.918 370.737 163.268 371.741 152.174 369.275C132.428 364.765 120.834 355.934 91.726 323.394C71.3169 300.584 59.6741 289.956 46.8066 281.979C37.4092 276.357 22.3313 270.57 17.308 270.712C12.1226 270.859 15.2784 267.662 24.1012 264.141C41.5803 256.939 52.8785 254.983 76.8785 254.957C97.3048 254.705 101.05 255.253 114.953 259.602ZM412.067 295.992C418.425 338.664 416.623 379.441 407.265 404.895C399.426 426.543 383.794 447.922 364.923 463.504C355.411 471.461 322.432 493.004 321.271 492.056C320.101 490.781 327.66 476.664 348.723 440.411C360.496 420.287 372.085 399.35 374.53 393.883C384.63 371.843 391.548 346.132 391.15 331.587C390.805 319.003 387.19 323.194 385.491 338.126C382.38 366.673 371.42 392.826 342.871 439.923C337.131 449.408 329.085 463.539 324.92 471.344L317.36 485.461L317.952 471.542C319.786 431.909 324.651 408.218 335.813 383.532C342.693 368.289 349.226 358.127 382.965 311.047C391.87 298.691 405.567 271.807 405.744 266.404C405.929 261.329 409.091 276.123 412.067 295.992ZM132.507 492.011C143.398 498.898 159.16 505.975 194.568 519.855C239.154 537.236 260.954 557.554 274.281 594.14C278.856 607.258 284.281 633.601 284.594 645.041L284.773 651.578L279.341 642.737C251.973 596.735 241.959 586.388 205.395 565.835C164.061 542.8 147.984 530.172 139.763 514.212C135.655 506.315 131.528 503.651 131.68 509.208C131.783 512.967 139.735 525.008 147.583 533.29C156.598 542.685 168.335 550.857 194.525 565.652C238.668 590.57 249.33 600.899 271.487 640.179L280.181 655.634L264.941 649.851C256.583 646.653 238.89 640.122 225.626 635.428C212.524 630.729 197.424 624.124 191.982 620.844C150.409 595.035 123.351 548.534 107.209 474.246L105.918 468.558L113.604 476.845C117.943 481.302 126.404 488.258 132.507 492.011ZM486.18 544.789C486.198 545.443 482.703 554.047 478.43 563.818C468.056 587.664 467.654 596.671 474.836 633.922C479.712 657.991 479.977 661.745 478.629 671.76C475.362 694.587 464.332 712.237 428.145 752.844L415.558 766.94L415.707 736.841C416.211 678.273 425.004 638.116 444.706 605.5C449.199 597.849 451.491 592.713 450.492 591.76C448.327 589.696 440.975 599.554 433.451 614.978C418.084 645.999 409.606 691.709 410.242 738.632L410.347 754.33L407.609 737.234C404.075 714.764 403.633 663.092 407.047 645.658C412.44 617.537 421.08 601.427 444.08 576.731C464.559 554.725 486.01 538.578 486.18 544.789Z" fill="black" fill-opacity="0.05"/>
</svg>
