<svg width="15" height="15" viewBox="0 0 15 15" fill="none" xmlns="http://www.w3.org/2000/svg">
<path d="M10.34 1.21638C11.1459 1.21878 11.9181 1.53999 12.488 2.10985C13.0578 2.67971 13.379 3.45191 13.3814 4.25781V10.34C13.379 11.1459 13.0578 11.9181 12.488 12.488C11.9181 13.0578 11.1459 13.379 10.34 13.3814H4.25781C3.45191 13.379 2.67971 13.0578 2.10985 12.488C1.53999 11.9181 1.21878 11.1459 1.21638 10.34V4.25781C1.21878 3.45191 1.53999 2.67971 2.10985 2.10985C2.67971 1.53999 3.45191 1.21878 4.25781 1.21638H10.34ZM10.34 0H4.25781C1.91596 0 0 1.91596 0 4.25781V10.34C0 12.6819 1.91596 14.5978 4.25781 14.5978H10.34C12.6819 14.5978 14.5978 12.6819 14.5978 10.34V4.25781C14.5978 1.91596 12.6819 0 10.34 0Z" fill="#484846"/>
<path d="M11.2525 4.25783C11.072 4.25783 10.8956 4.20433 10.7456 4.10407C10.5955 4.00382 10.4786 3.86133 10.4095 3.69462C10.3405 3.5279 10.3224 3.34446 10.3576 3.16748C10.3928 2.9905 10.4797 2.82793 10.6073 2.70033C10.7349 2.57273 10.8975 2.48584 11.0745 2.45064C11.2514 2.41543 11.4349 2.4335 11.6016 2.50256C11.7683 2.57161 11.9108 2.68855 12.0111 2.83859C12.1113 2.98863 12.1648 3.16502 12.1648 3.34547C12.1651 3.46536 12.1417 3.58411 12.0959 3.69492C12.0501 3.80573 11.9829 3.90641 11.8982 3.99118C11.8134 4.07596 11.7127 4.14315 11.6019 4.18891C11.4911 4.23467 11.3723 4.25809 11.2525 4.25783Z" fill="#484846"/>
<path d="M7.29887 4.86579C7.78009 4.86579 8.2505 5.00849 8.65062 5.27584C9.05074 5.54319 9.36259 5.92318 9.54675 6.36777C9.7309 6.81236 9.77908 7.30157 9.6852 7.77354C9.59132 8.24551 9.35959 8.67904 9.01932 9.01932C8.67905 9.35959 8.24551 9.59132 7.77354 9.6852C7.30157 9.77908 6.81236 9.7309 6.36777 9.54674C5.92319 9.36259 5.54319 9.05074 5.27584 8.65062C5.00849 8.2505 4.86579 7.78009 4.86579 7.29887C4.86648 6.65379 5.12305 6.03533 5.57919 5.57919C6.03533 5.12304 6.65379 4.86648 7.29887 4.86579ZM7.29887 3.64941C6.57708 3.64941 5.87149 3.86345 5.27134 4.26446C4.67119 4.66547 4.20343 5.23543 3.92721 5.90228C3.651 6.56913 3.57872 7.30292 3.71954 8.01084C3.86035 8.71877 4.20793 9.36904 4.71832 9.87943C5.2287 10.3898 5.87897 10.7374 6.5869 10.8782C7.29482 11.019 8.02861 10.9467 8.69546 10.6705C9.36231 10.3943 9.93228 9.92655 10.3333 9.3264C10.7343 8.72625 10.9483 8.02066 10.9483 7.29887C10.9483 6.33097 10.5638 5.40272 9.87943 4.71832C9.19502 4.03391 8.26677 3.64941 7.29887 3.64941Z" fill="#484846"/>
</svg>
