<svg width="17" height="17" viewBox="0 0 17 17" fill="none" xmlns="http://www.w3.org/2000/svg">
<path d="M15.1422 12.4395C14.5849 11.878 13.2353 11.0586 12.5805 10.7284C11.7278 10.2989 11.6576 10.2638 10.9873 10.7618C10.5403 11.0941 10.243 11.391 9.71981 11.2794C9.19659 11.1678 8.05962 10.5386 7.06406 9.54619C6.06851 8.5538 5.40282 7.38384 5.29087 6.86237C5.17893 6.34091 5.48072 6.04719 5.80988 5.59907C6.27379 4.96742 6.2387 4.86214 5.84216 4.00941C5.53301 3.34618 4.68975 2.00918 4.12618 1.45473C3.5233 0.859222 3.5233 0.964498 3.13483 1.12592C2.81858 1.25898 2.51517 1.42073 2.22841 1.60913C1.66694 1.98216 1.35533 2.29202 1.13741 2.75769C0.91949 3.22336 0.821584 4.31506 1.94698 6.35951C3.07237 8.40396 3.86194 9.44934 5.49616 11.079C7.13038 12.7087 8.38702 13.5849 10.2241 14.6152C12.4966 15.888 13.3683 15.6399 13.8354 15.4223C14.3024 15.2047 14.6137 14.8959 14.9874 14.3345C15.1763 14.0482 15.3384 13.7451 15.4717 13.4291C15.6335 13.042 15.7388 13.042 15.1422 12.4395Z" stroke="#484846" stroke-width="1.2" stroke-miterlimit="10"/>
</svg>
