<svg width="43" height="33" viewBox="0 0 43 33" fill="none" xmlns="http://www.w3.org/2000/svg">
<path d="M9.32003 12.1224C11.1324 12.1224 12.9041 12.713 14.411 13.8196C15.9179 14.9261 17.0925 16.4989 17.786 18.3391C18.4796 20.1792 18.6611 22.204 18.3075 24.1575C17.9539 26.111 17.0812 27.9054 15.7996 29.3138C14.5181 30.7221 12.8853 31.6813 11.1077 32.0698C9.3302 32.4584 7.48772 32.259 5.81331 31.4968C4.13889 30.7346 2.70775 29.4438 1.70085 27.7877C0.693945 26.1316 0.156514 24.1846 0.156514 22.1929L0.114624 20.7542C0.114624 15.4125 2.0455 10.2896 5.48249 6.51243C8.91947 2.73527 13.581 0.613281 18.4417 0.613281V6.36784C16.7218 6.36276 15.0181 6.73242 13.429 7.45544C11.84 8.17847 10.3971 9.24051 9.18389 10.5802C8.71235 11.0974 8.27735 11.6534 7.88267 12.2432C8.35132 12.1627 8.83044 12.1195 9.31741 12.1195L9.32003 12.1224ZM32.8834 12.1224C34.6957 12.1224 36.4674 12.713 37.9743 13.8196C39.4813 14.9261 40.6558 16.4989 41.3493 18.3391C42.0429 20.1792 42.2244 22.204 41.8708 24.1575C41.5172 26.111 40.6445 27.9054 39.3629 29.3138C38.0814 30.7221 36.4486 31.6813 34.6711 32.0698C32.8935 32.4584 31.0511 32.259 29.3766 31.4968C27.7022 30.7346 26.2711 29.4438 25.2642 27.7877C24.2573 26.1316 23.7198 24.1846 23.7198 22.1929L23.678 20.7542C23.678 15.4125 25.6088 10.2896 29.0458 6.51243C32.4828 2.73527 37.1444 0.613281 42.005 0.613281V6.36784C40.2851 6.36276 38.5814 6.73242 36.9924 7.45544C35.4033 8.17847 33.9605 9.24051 32.7472 10.5802C32.2757 11.0974 31.8407 11.6534 31.446 12.2432C31.9146 12.1627 32.3938 12.1195 32.8834 12.1195V12.1224Z" fill="black" fill-opacity="0.8"/>
</svg>
