<svg width="30" height="31" viewBox="0 0 30 31" fill="none" xmlns="http://www.w3.org/2000/svg">
<path d="M1 15.5C1 7.46071 7.29867 1 15 1C22.7013 1 29 7.46071 29 15.5C29 23.5393 22.7013 30 15 30C7.29867 30 1 23.5393 1 15.5Z" stroke="black" stroke-width="2"/>
<path d="M6.79289 14.4632C6.40237 14.8537 6.40237 15.4869 6.79289 15.8774L13.1569 22.2414C13.5474 22.6319 14.1805 22.6319 14.5711 22.2414C14.9616 21.8508 14.9616 21.2177 14.5711 20.8271L8.91422 15.1703L14.5711 9.51343C14.9616 9.12291 14.9616 8.48974 14.5711 8.09922C14.1805 7.7087 13.5474 7.7087 13.1569 8.09922L6.79289 14.4632ZM23.125 14.1703L7.5 14.1703V16.1703L23.125 16.1703V14.1703Z" fill="black"/>
</svg>
