<svg width="12" height="13" viewBox="0 0 12 13" fill="none" xmlns="http://www.w3.org/2000/svg">
<circle cx="6" cy="7" r="5.5" stroke="black"/>
<path d="M8.41113 4.25195V4.41797C8.41113 4.64583 8.41927 4.88346 8.43555 5.13086C8.45182 5.375 8.47624 5.63216 8.50879 5.90234L8.15234 5.96094C8.08724 5.49219 7.86589 5.1276 7.48828 4.86719C7.11068 4.60352 6.61751 4.47168 6.00879 4.47168C5.19824 4.47168 4.57161 4.7207 4.12891 5.21875C3.68945 5.71354 3.46973 6.41667 3.46973 7.32812C3.46973 8.30143 3.72201 9.08919 4.22656 9.69141C4.73438 10.2904 5.39193 10.5898 6.19922 10.5898C6.70703 10.5898 7.14648 10.4727 7.51758 10.2383C7.89193 10.0039 8.18327 9.66048 8.3916 9.20801L8.71875 9.36914C8.61458 9.58073 8.52018 9.7972 8.43555 10.0186C8.35091 10.2367 8.27604 10.4564 8.21094 10.6777C7.85938 10.8372 7.5013 10.9577 7.13672 11.0391C6.77214 11.1204 6.40592 11.1611 6.03809 11.1611C4.95736 11.1611 4.08171 10.8275 3.41113 10.1602C2.74382 9.48958 2.41016 8.60905 2.41016 7.51855C2.41016 6.44434 2.76335 5.57031 3.46973 4.89648C4.17611 4.2194 5.08919 3.88086 6.20898 3.88086C6.54102 3.88086 6.89095 3.91178 7.25879 3.97363C7.62988 4.03548 8.014 4.12826 8.41113 4.25195Z" fill="black"/>
</svg>
