<svg width="12" height="17" viewBox="0 0 12 17" fill="none" xmlns="http://www.w3.org/2000/svg">
<path d="M6.15217 1C3.30774 1 1 3.19647 1 5.90172C1 9.01449 4.43478 13.9473 5.69599 15.6511C5.74834 15.7231 5.81696 15.7816 5.89624 15.8219C5.97552 15.8623 6.06322 15.8833 6.15217 15.8833C6.24113 15.8833 6.32883 15.8623 6.40811 15.8219C6.48739 15.7816 6.556 15.7231 6.60836 15.6511C7.86957 13.9481 11.3043 9.017 11.3043 5.90172C11.3043 3.19647 8.9966 1 6.15217 1Z" stroke="#484846" stroke-width="1.2" stroke-linecap="round" stroke-linejoin="round"/>
<path d="M6.15221 7.8696C7.10069 7.8696 7.8696 7.10069 7.8696 6.15221C7.8696 5.20372 7.10069 4.43481 6.15221 4.43481C5.20372 4.43481 4.43481 5.20372 4.43481 6.15221C4.43481 7.10069 5.20372 7.8696 6.15221 7.8696Z" stroke="#484846" stroke-width="1.2" stroke-linecap="round" stroke-linejoin="round"/>
</svg>
