<svg width="130" height="166" viewBox="0 0 130 166" fill="none" xmlns="http://www.w3.org/2000/svg">
<ellipse cx="74.6058" cy="59.8429" rx="45.2596" ry="44.6709" fill="#F4E3D6"/>
<path d="M67.4996 0.0724792C67.4996 0.157744 67.6864 0.31122 67.9241 0.413538C68.3146 0.584067 68.3486 0.703438 68.3316 1.59019C68.3316 3.3978 67.8902 9.43454 67.7713 9.63918C67.6864 9.75855 67.4487 9.92908 67.211 10.0143C66.9733 10.0996 66.8205 10.236 66.8884 10.2872C67.0242 10.4236 70.2163 10.6453 70.2163 10.5089C70.2163 10.4748 70.0126 10.2701 69.7579 10.0655L69.2994 9.70739L69.5711 5.25657C69.7239 2.818 69.8937 0.720491 69.9616 0.618174C70.1314 0.345326 71.9652 0.567015 72.882 0.959232C73.731 1.3344 74.1215 1.99946 74.1215 3.09085C74.1215 4.83025 73.1537 5.69995 71.1502 5.75111C70.2673 5.76816 70.1993 5.80227 70.5729 5.93869C70.8445 6.05806 71.1841 6.48438 71.5067 7.08124C72.2029 8.41136 73.5273 10.0314 74.6139 10.8499C75.395 11.4468 76.159 11.7367 76.159 11.4297C76.159 11.3786 75.7006 10.8329 75.1573 10.219C74.563 9.58802 73.8159 8.47958 73.3744 7.60988L72.5934 6.10922L73.2726 5.98985C74.7498 5.73405 75.7176 4.57445 75.7176 3.09085C75.7176 1.53903 74.6988 0.635226 72.5764 0.294168C71.0483 0.0554266 67.4996 -0.0980501 67.4996 0.0724792Z" fill="black"/>
<path d="M59.2303 0.737785C58.8568 0.805997 58.67 1.13 59.0096 1.13C59.0945 1.13 59.2473 1.28348 59.3492 1.47106C59.502 1.76096 59.2982 2.71593 58.3304 6.27999C57.6682 8.73561 57.006 10.8843 56.8532 11.0548C56.5306 11.4129 55.8005 11.4641 55.393 11.1401C55.0704 10.9013 51.5387 3.46626 51.5387 3.00583C51.5387 2.8353 51.7085 2.59656 51.9293 2.44308C52.5914 1.9997 52.116 1.94854 51.0973 2.37487L50.0955 2.76709L49.9767 4.21658C49.9087 5.00102 49.8069 6.94505 49.7389 8.51392C49.688 10.0828 49.5692 11.3618 49.5012 11.3277C49.4333 11.2936 48.2448 10.0146 46.8695 8.46277C45.4942 6.91095 44.2377 5.51261 44.0849 5.34208C43.8132 5.06923 43.7453 5.06923 42.7435 5.41029C41.6569 5.7684 41.504 6.07535 42.387 6.07535C42.7435 6.07535 42.9303 6.17767 43.0492 6.45052C43.2529 6.928 45.2564 14.4483 45.2564 14.7382C45.2564 14.8406 45.0867 15.0793 44.8829 15.2839C44.3226 15.8126 44.6112 15.8637 45.7998 15.4374C47.1411 14.9599 47.3619 14.7724 46.5808 14.7724C46.2582 14.7724 45.9017 14.67 45.7998 14.5507C45.613 14.3119 43.6774 7.26906 43.7793 7.16674C43.8132 7.13264 45.1206 8.54803 46.6997 10.3386C48.2618 12.1291 49.6371 13.5616 49.7389 13.5275C49.9257 13.4593 50.0276 12.1974 50.2993 6.84274L50.4351 4.2848L52.0991 7.84886C52.9989 9.80995 53.746 11.4982 53.746 11.5835C53.746 11.6858 53.5423 11.9927 53.2876 12.2485C52.7103 12.8454 52.8461 12.8454 54.578 12.2144C55.3421 11.9245 56.2589 11.6687 56.5985 11.6176C58.4323 11.3959 58.8398 11.3106 58.8398 11.1742C58.8398 11.0889 58.67 11.0207 58.4662 11.0207C57.7022 11.0207 57.6003 10.8161 57.838 9.75879C57.9569 9.23015 58.1267 8.73561 58.2285 8.65035C58.4153 8.49687 62.0319 7.95118 62.8299 7.95118C63.0676 7.95118 63.3223 8.20697 63.6449 8.78677C64.2052 9.80995 64.2222 10.0657 63.6788 10.3045C63.0167 10.6114 63.1695 10.8161 63.9845 10.6796C64.375 10.6114 65.1391 10.4921 65.6824 10.4239C66.2087 10.3727 66.6502 10.2363 66.6502 10.151C66.6502 10.0657 66.5483 9.99753 66.4295 9.99753C66.022 9.99753 65.6145 9.40068 63.0676 5.00102C60.7584 1.02769 60.5377 0.703679 60.0962 0.686626C59.8246 0.669574 59.4341 0.686626 59.2303 0.737785ZM61.3867 4.8987C62.1507 6.21178 62.728 7.35432 62.6601 7.40548C62.5073 7.57601 58.4832 8.07055 58.4153 7.95118C58.3134 7.7977 59.7567 2.49424 59.8755 2.49424C59.9434 2.49424 60.6226 3.56857 61.3867 4.8987Z" fill="black"/>
<path d="M78.8748 1.06261C78.8748 1.14787 79.0276 1.3184 79.2143 1.43777C79.4011 1.55714 79.5539 1.82999 79.5539 2.05168C79.5539 2.46095 78.0088 9.06044 77.6692 10.1177C77.5504 10.5099 77.3636 10.6805 76.9901 10.7657C76.7184 10.8339 76.4977 10.9363 76.4977 10.9874C76.4977 11.1238 82.78 12.7439 83.4252 12.795C83.7648 12.8121 83.8666 12.6245 84.393 11.0386C84.7326 10.0666 84.9533 9.23096 84.9194 9.17981C84.6816 8.95812 84.3081 9.41855 83.7478 10.5781L83.1365 11.8742H82.3555C81.2688 11.8742 79.2143 11.3796 79.0955 11.0897C79.0106 10.8339 80.8274 2.98959 81.116 2.4439C81.2009 2.27337 81.4896 2.10284 81.7782 2.03463C82.0499 1.98347 82.2706 1.88115 82.2706 1.81294C82.2706 1.74473 81.6763 1.55714 80.9462 1.40367C80.2161 1.25019 79.4521 1.07966 79.2483 1.01145C79.0446 0.96029 78.8748 0.994396 78.8748 1.06261Z" fill="black"/>
<path d="M89.0636 3.84129C89.0636 3.92655 89.1824 4.08003 89.3182 4.1994C89.4541 4.31877 89.5729 4.52341 89.5729 4.65983C89.5729 5.035 86.3639 12.4189 86.0582 12.76C85.8715 12.9646 85.6507 13.0328 85.3621 12.9476C85.0735 12.8793 84.9716 12.9135 85.0055 13.0499C85.0565 13.1692 86.4148 13.8514 88.0618 14.5846C89.6918 15.3009 91.2199 16.0341 91.4406 16.1876C92.0179 16.5969 92.0859 16.5628 92.4594 15.7442C92.6292 15.352 93.0027 14.6358 93.2914 14.1413C93.597 13.6297 93.7498 13.2204 93.6479 13.1522C93.3933 12.9987 93.1895 13.1692 92.4594 14.2777C91.8821 15.1303 91.6953 15.2838 91.2709 15.2838C90.7954 15.2838 87.8241 14.1072 87.5015 13.7832C87.3487 13.6297 88.9956 9.65634 89.2843 9.45171C89.3862 9.40055 89.8616 9.55402 90.371 9.79276L91.2709 10.2361V11.0547C91.2709 11.4981 91.3388 11.8732 91.4237 11.8732C91.5086 11.8732 91.7123 11.464 91.8821 10.9694C92.0349 10.4919 92.3066 9.79276 92.4934 9.43465C92.8669 8.66727 92.5783 8.56495 92.0179 9.26412L91.6444 9.74161L90.6766 9.40055C90.1502 9.23002 89.6748 8.97422 89.6239 8.85485C89.5729 8.71843 89.8786 7.83168 90.303 6.87671C90.9313 5.44427 91.118 5.13731 91.4067 5.17142C92.0859 5.25668 94.6497 6.58681 94.7516 6.91082C94.8025 7.0984 94.7346 7.69525 94.5818 8.258C94.2762 9.48581 94.2592 9.82687 94.5478 9.82687C94.7176 9.82687 95.7703 7.01314 95.7703 6.5186C95.7703 6.45039 95.193 6.16049 94.4969 5.90469C93.8008 5.6489 92.3236 5.05205 91.2199 4.57457C89.0126 3.60255 89.0636 3.6196 89.0636 3.84129Z" fill="black"/>
<path d="M102.069 10.2875C102.018 10.3386 102.103 10.5603 102.239 10.765C102.579 11.2936 102.579 11.3107 99.8789 14.8577C96.9585 18.6946 97.0943 18.5582 96.4152 18.4217C96.1095 18.3706 95.8549 18.3535 95.8549 18.4047C95.8549 18.6264 99.8959 21.6618 100.609 21.9858C101.73 22.4803 102.952 22.4633 103.784 21.9005C105.142 20.9967 105.397 19.3085 104.361 17.9954C104.056 17.6373 103.835 17.3303 103.869 17.3303C103.903 17.3303 104.175 17.3986 104.48 17.5009C105.312 17.7226 106.008 17.535 106.654 16.8699C107.146 16.3924 107.231 16.1707 107.231 15.5227C107.231 14.5848 106.959 14.0221 106.093 13.2206C105.193 12.3679 102.188 10.1681 102.069 10.2875ZM105.176 13.033C106.263 14.0732 106.297 14.9941 105.295 16.1025C104.599 16.8699 103.869 16.904 102.731 16.2219C101.679 15.608 101.407 15.7615 102.29 16.4777C103.682 17.6032 104.056 18.9333 103.292 20.0588C102.664 20.9797 102.052 21.3378 101.118 21.3378C100.422 21.3378 100.134 21.2184 99.3016 20.6386C98.7583 20.2464 98.2999 19.8201 98.2659 19.6666C98.215 19.4279 101.305 15.1817 103.207 12.8625C103.954 11.9416 104.039 11.9416 105.176 13.033Z" fill="black"/>
<path d="M14.4396 14.6017C14.0491 15.2326 14.966 17.5689 16.0526 18.7455C17.1393 19.9392 18.158 20.3144 20.2125 20.2973C22.0293 20.2803 21.9104 20.3144 26.4099 18.6944C29.2285 17.6882 30.8924 17.4324 31.3848 17.9099C31.7584 18.2851 31.7414 18.916 31.3339 20.8942C30.5189 24.9016 27.8362 28.2611 24.1347 29.9493C21.0785 31.3476 18.3618 31.9104 12.1984 32.422C9.37981 32.6437 8.93835 32.7289 7.44419 33.2917C2.09575 35.3039 0.533662 37.265 0.0922037 42.5685C-0.315296 47.241 0.618558 53.7552 3.08054 63.6289C4.40491 68.9323 4.35398 68.6595 5.18596 74.1335C6.47637 82.694 6.95179 84.1265 10.6702 90.743C14.6094 97.7518 15.8828 101.145 15.8828 104.624C15.8828 107.336 15.0848 109.552 12.1984 114.839C9.51565 119.767 8.80252 121.455 7.46117 126.128C6.49335 129.453 5.81419 132.523 5.33877 135.678C4.81241 139.071 4.76148 146.046 5.23689 148.894C6.20471 154.674 8.10637 157.744 12.5549 160.694C15.3225 162.519 19.4145 164.173 22.8613 164.855C25.2384 165.316 29.5001 165.316 31.4358 164.838C33.0488 164.463 34.7297 163.747 34.7297 163.457C34.7297 163.218 34.4581 163.286 32.5224 163.968C27.0382 165.895 18.8712 164.343 12.6228 160.166C9.02325 157.761 7.32533 155.425 6.2896 151.451C5.5595 148.672 5.44064 147.427 5.44064 142.754C5.45762 137.059 5.91606 133.665 7.41023 128.004C8.7346 123.024 9.90617 120.193 13.2511 113.935C15.3395 110.013 16.3922 107.114 16.3922 105.221V104.505L17.7166 104.437C19.3296 104.368 20.2635 103.942 21.452 102.765C22.9632 101.231 23.9479 98.775 24.4743 95.245C24.8139 92.8405 24.729 88.0487 24.2875 86.0535C23.88 84.2458 22.6575 80.9546 20.1786 75.1396C17.8185 69.5633 17.4449 68.7788 15.5433 65.3341C14.8131 64.0211 13.9302 62.2476 13.5906 61.412C12.8605 59.6385 12.8775 59.6726 12.6398 59.9113C12.3512 60.2012 13.3699 62.5716 15.2886 66.0163C17.6487 70.2965 22.7254 82.1654 23.5235 85.269C24.1687 87.844 24.3724 91.6809 24.0159 94.6652C23.5914 98.161 22.6405 100.736 21.1803 102.288C20.0937 103.447 19.3126 103.823 17.7336 103.925L16.4601 103.993L16.2564 102.714C15.7979 99.764 14.3038 96.1829 11.3494 90.9136C7.42721 83.9389 6.91783 82.3871 5.69533 74.0311C5.08408 69.7509 4.82939 68.4207 4.06533 65.5047C2.40137 59.0416 1.12793 52.5274 0.754392 48.4006C0.516683 45.6721 0.635537 41.1531 0.9921 39.9253C1.68825 37.4696 3.0296 35.8837 5.37273 34.7412C7.98752 33.4793 8.98929 33.2235 12.47 32.9336C17.6656 32.4902 19.7032 32.1321 22.4198 31.1942C28.0909 29.216 31.2999 25.4303 32.1659 19.6664C32.4545 17.6712 31.9282 17.0573 30.0095 17.1937C28.9228 17.279 28.2437 17.4836 23.6084 19.1718C22.1142 19.7175 21.7237 19.7857 20.2804 19.8028C18.8033 19.8028 18.5655 19.7516 17.6656 19.2912C16.3922 18.6432 15.5433 17.4665 15.1018 15.8295C14.7792 14.5846 14.6264 14.2947 14.4396 14.6017Z" fill="black"/>
<path d="M109.506 19.376C107.672 19.7512 105.821 21.3371 105.261 22.9912C104.854 24.2361 105.006 25.9243 105.618 26.9646C107.587 30.3581 111.611 31.1255 114.362 28.6358C115.669 27.4591 116.145 26.4359 116.145 24.7477C116.145 23.554 116.077 23.2641 115.652 22.4797C114.396 20.2287 111.781 18.8985 109.506 19.376ZM112.936 20.3821C114.192 20.9619 114.99 22.4797 114.82 23.9633C114.77 24.3896 114.549 25.2081 114.345 25.7709C113.666 27.6126 111.425 29.4373 109.88 29.4373C108.555 29.4373 107.112 28.397 106.62 27.1181C105.805 24.9523 107.367 21.5588 109.693 20.4674C110.728 19.9729 111.968 19.9388 112.936 20.3821Z" fill="black"/>
<path d="M119.575 27.8345C119.524 27.9027 119.507 28.1414 119.558 28.3972C119.626 28.6701 119.558 28.9259 119.422 29.0452C119.185 29.2328 114.04 32.1318 112.512 32.9333C111.68 33.3767 111.612 33.3937 111.306 33.1038C110.593 32.4558 110.729 33.0356 111.714 34.8944C113.31 37.8616 114.38 38.9018 116.281 39.3282C117.198 39.5328 118.692 39.2941 119.677 38.7825C120.628 38.305 121.833 37.1283 122.19 36.3439C122.615 35.406 122.615 33.7177 122.156 32.3876C121.783 31.2451 119.745 27.664 119.575 27.8345ZM121.137 31.0916C121.732 32.3194 121.816 34.11 121.324 35.1331C120.866 36.0881 119.881 36.9578 118.472 37.657C116.213 38.7654 114.312 38.2709 112.987 36.2075C112.614 35.6277 112.342 35.0479 112.359 34.9114C112.41 34.6557 120.051 30.3072 120.492 30.2901C120.628 30.2901 120.917 30.6482 121.137 31.0916Z" fill="black"/>
<path d="M124.889 38.5612C124.889 38.8852 124.396 39.5333 122.868 41.1703C121.765 42.364 120.712 43.4554 120.542 43.6089C120.355 43.7624 119.557 44.1034 118.742 44.3763L117.265 44.8538L116.824 44.4445C116.586 44.2228 116.365 44.0864 116.314 44.1376C116.196 44.2569 117.265 47.3435 117.435 47.3435C117.52 47.3435 117.588 47.1218 117.588 46.849C117.588 46.3203 117.775 46.201 119.948 45.4506L120.865 45.1266L123.819 45.6382C127.062 46.218 127.215 46.2521 127.656 46.6273C127.809 46.7637 127.979 46.849 128.013 46.8149C128.115 46.7125 127.368 44.4445 127.232 44.4445C127.147 44.4445 127.096 44.7174 127.096 45.0414C127.096 45.5871 127.045 45.6382 126.621 45.6382C126.094 45.6382 121.663 44.8538 121.561 44.7344C121.476 44.6491 124.838 41.0169 125.194 40.7952C125.364 40.6929 125.551 40.7952 125.84 41.1362C126.366 41.7842 126.349 41.5114 125.738 39.7208C125.245 38.2031 124.889 37.7256 124.889 38.5612Z" fill="black"/>
<path d="M61.0976 41.1533C55.3756 46.849 53.3551 50.5666 52.9646 56.0747C52.8118 58.121 53.0665 59.5535 54.0852 62.6912L54.9002 65.1639L54.9851 70.024C55.07 74.6112 55.3077 77.6296 55.8511 80.8014C55.9699 81.5347 56.0548 82.1316 56.0209 82.1316C55.9869 82.1316 55.104 80.972 54.0513 79.5395L52.1326 76.9645L52.1156 75.4127C52.1156 73.6562 51.793 72.5307 50.8422 70.9619C49.6367 68.9667 46.6483 66.4428 44.1524 65.3344C42.1489 64.4477 40.6207 64.1578 38.1248 64.1578C35.527 64.1578 33.914 64.4988 31.7237 65.5049C30.2634 66.1871 30.0597 66.6134 31.2143 66.6134C33.7951 66.6134 36.1722 68.2675 39.9076 72.6842C42.879 76.163 43.9826 76.9645 46.6144 77.4761C47.8029 77.7148 48.2614 77.7319 49.5857 77.5614C50.4517 77.459 51.2667 77.3226 51.4025 77.2715C51.5723 77.2033 52.3024 78.0559 53.8305 80.1023C55.0191 81.7052 56.0378 83.1888 56.0888 83.3764C56.1397 83.5811 56.2246 83.8198 56.2925 83.9221C56.3604 84.0074 56.5472 84.7066 56.7 85.4569C57.6848 90.0782 58.8224 94.0004 61.9805 103.618C63.8313 109.28 65.1217 113.441 65.1217 113.816C65.1217 114.413 62.8465 112.366 61.5051 110.559C59.9261 108.427 59.6884 107.916 59.6884 106.585C59.6884 103.976 58.9073 100.515 57.8716 98.4512C56.3774 95.4499 54.3399 93.7958 49.6876 91.8347C44.1864 89.5155 42.5054 88.39 41.1131 86.0708C39.9925 84.2291 39.9076 84.6895 40.6887 88.39C42.1149 95.2282 44.4411 99.7813 47.9048 102.595C49.5009 103.874 50.0781 104.164 53.8815 105.648C59.145 107.677 58.8564 107.506 60.1468 109.484C61.3184 111.275 63.4747 113.594 64.7651 114.464C65.4952 114.941 65.5462 115.027 65.9197 116.493C66.514 118.795 67.4478 123.553 67.7874 125.958C68.2119 128.959 68.2119 136.65 67.7874 139.446C66.8196 145.978 64.5953 151.469 61.1995 155.834C60.5543 156.67 60.0279 157.403 60.0279 157.506C60.0279 157.795 60.3845 157.693 60.7241 157.284C63.9671 153.464 66.2763 148.757 67.5837 143.266C68.4666 139.651 68.5685 138.474 68.6024 132.728L68.6364 127.288L69.2476 126.793C70.4532 125.787 72.0322 122.888 72.3378 121.098C72.5246 120.006 73.1189 119.171 75.3092 116.817C79.7917 112.025 80.6067 109.86 79.7408 105.119C79.0616 101.418 79.1295 100.549 80.3011 98.0078C80.7256 97.104 81.0991 96.1832 81.1161 95.9444C81.167 95.5522 81.1161 95.5181 80.5218 95.5352C79.6559 95.5693 78.3485 96.4731 76.277 98.4853C74.3244 100.378 73.3566 101.589 72.6265 103.038C70.9116 106.466 70.555 111.735 71.5908 118.591C71.9134 120.739 71.9134 120.91 71.6587 121.831C71.2682 123.195 70.3003 124.986 69.4004 125.975C68.993 126.435 68.6024 126.81 68.5175 126.81C68.4496 126.81 68.3308 126.367 68.2628 125.821C67.6856 120.978 66.0216 114.396 63.254 105.92C61.2335 99.7472 61.1655 99.4062 61.2674 97.3939C61.3693 95.5522 61.607 94.4608 62.405 92.3974L62.9144 91.0844L64.2218 90.4193C68.3138 88.407 71.6077 85.2863 73.017 82.0633C74.1207 79.5395 74.6131 75.9413 74.3244 72.3432C74.1037 69.7852 73.4924 65.5902 73.2547 65.2321C73.051 64.874 72.8472 65.198 72.5076 66.3576C72.1001 67.8412 71.0814 69.7 69.6721 71.5587C69.0099 72.4455 67.8214 74.0144 67.0403 75.0546C64.1199 78.9256 63.0163 82.285 62.5918 88.5264C62.456 90.4534 62.3371 91.1185 61.9975 91.9711C61.4202 93.3694 60.8939 95.3476 60.7241 96.6607L60.6052 97.735L59.8921 95.5181C57.9055 89.2085 56.5302 82.8478 55.8511 76.7258C55.7152 75.4297 55.5454 72.3943 55.4945 69.9728L55.3926 65.5732L56.3265 64.6011C60.1298 60.679 60.9958 58.0699 61.4712 49.0489C61.6919 44.9732 62.3371 41.9889 63.4238 40.0278C63.8992 39.1752 63.9501 38.8171 63.5936 38.8171C63.5257 38.8171 62.405 39.8744 61.0976 41.1533ZM61.9975 41.9207C61.3523 43.8307 61.0976 45.6724 60.792 50.2596C60.3166 57.6947 59.4507 60.2867 56.3774 63.6291L55.5964 64.4818L55.6983 62.7765C55.9869 57.9164 57.6848 50.379 59.5865 45.553C60.2317 43.933 60.2996 43.5919 60.0279 43.5919C59.6204 43.5919 57.8207 48.7589 56.8189 52.7834C56.1567 55.4608 55.3926 59.8604 55.1719 62.4354L55.0361 63.7996L54.3909 61.8045C54.0343 60.696 53.6777 59.2124 53.6098 58.4962C53.44 56.9103 53.6098 54.3012 54.0003 52.6982C54.4078 51.0099 55.902 48.0257 57.2603 46.201C58.4149 44.6321 62.2183 40.4371 62.3541 40.5735C62.388 40.6247 62.2183 41.2215 61.9975 41.9207ZM42.5224 65.2321C45.307 66.17 48.1086 68.097 49.6027 70.0922C50.8931 71.7975 51.4195 73.0935 51.5044 74.7817L51.5893 76.2312L50.2989 74.6965C48.567 72.616 45.6126 69.7682 44.0675 68.6768C41.9451 67.1761 40.5189 66.5452 38.6851 66.2723C37.4966 66.1188 36.9363 66.2041 36.9363 66.5452C36.9363 66.7157 37.1909 66.7839 37.8362 66.7839C40.5358 66.7839 43.5242 68.4892 47.1407 72.0703C48.0406 72.9571 49.3141 74.3384 49.9763 75.1398C50.995 76.3336 51.1478 76.6064 50.9271 76.7258C50.3668 77.0498 47.2596 77.0668 46.105 76.7769C44.0505 76.2483 42.862 75.2933 39.9076 71.8145C37.8362 69.376 36.6476 68.2334 35.3232 67.3637C34.3554 66.7498 32.7933 66.1018 32.267 66.1018C31.7237 66.1018 32.0632 65.7778 32.9971 65.4367C34.8478 64.7376 36.0364 64.567 38.5493 64.6352C40.6887 64.6693 41.0792 64.7376 42.5224 65.2321ZM73.5264 69.9046C74.0697 74.3725 73.7641 78.6187 72.7114 81.2448C71.8285 83.4787 70.1306 85.6615 68.11 87.2304C67.0913 88.0319 63.5766 90.1805 63.4577 90.0782C63.3389 89.9418 64.1709 88.4923 66.48 84.7748C67.7704 82.7114 69.0439 80.5627 69.3156 79.9999C70.4362 77.7319 71.2342 75.0716 71.2342 73.5539C71.2342 72.2409 70.8437 72.6672 70.623 74.219C70.2155 77.1862 68.993 79.8806 65.8688 84.7066C65.2406 85.6786 64.3576 87.1281 63.8992 87.9296L63.0672 89.3791L63.1691 87.9296C63.4747 83.8027 64.052 81.3471 65.2915 78.8062C66.0555 77.2374 66.7687 76.1971 70.4362 71.3882C71.404 70.1263 72.9151 67.3637 72.9491 66.801C72.9831 66.2723 73.2717 67.8241 73.5264 69.9046ZM43.694 89.5155C44.8146 90.2658 46.4446 91.0502 50.1121 92.6021C54.7304 94.5461 56.9547 96.7289 58.2451 100.583C58.6866 101.964 59.179 104.727 59.179 105.92V106.603L58.6357 105.665C55.902 100.787 54.8833 99.679 51.1139 97.428C46.8521 94.9042 45.2051 93.54 44.3901 91.8517C43.9826 91.0161 43.5581 90.7262 43.5581 91.306C43.5581 91.6982 44.3562 92.9772 45.1542 93.864C46.0711 94.8701 47.2766 95.7569 49.9763 97.3769C54.5267 100.105 55.6134 101.214 57.8207 105.375L58.6866 107.012L57.1075 106.364C56.2416 106.006 54.4078 105.272 53.0325 104.744C51.6742 104.215 50.1121 103.482 49.5518 103.124C45.273 100.31 42.5733 95.3817 41.0962 87.5885L40.9773 86.9916L41.7583 87.8784C42.1998 88.3559 43.0657 89.1062 43.694 89.5155ZM80.5728 96.0638C80.5728 96.132 80.1822 97.0188 79.7068 98.0249C78.5522 100.481 78.4843 101.418 79.1295 105.324C79.571 107.847 79.588 108.24 79.4182 109.28C79.0107 111.65 77.8051 113.458 73.8999 117.585L72.5416 119.017L72.6435 115.879C72.8642 109.774 73.8999 105.613 76.0563 102.271C76.5487 101.487 76.8034 100.958 76.7015 100.856C76.4808 100.634 75.6827 101.64 74.8508 103.226C73.1528 106.415 72.1341 111.156 72.0662 116.05L72.0322 117.687L71.7945 115.896C71.4889 113.543 71.5908 108.154 71.9983 106.347C72.6435 103.431 73.5943 101.777 76.0733 99.2698C78.2806 97.0358 80.5728 95.4158 80.5728 96.0638Z" fill="black"/>
<path d="M125.755 54.0777C125.28 54.5042 124.889 55.1694 124.363 56.3464C123.497 58.3422 123.09 58.9904 122.495 59.3486C121.409 59.9968 120.033 59.4168 119.626 58.1546C119.303 57.1993 119.49 55.6129 119.966 55.1012C120.407 54.6236 121.256 54.3336 122.207 54.3336C122.869 54.3336 123.192 54.0948 122.75 53.9242C122.597 53.873 121.969 53.7707 121.324 53.7195C120.22 53.6172 120.135 53.6342 119.745 54.0436C118.658 55.2377 118.692 58.2228 119.813 59.7751C120.492 60.7303 121.154 61.0373 122.326 60.952C123.175 60.8668 123.327 60.7985 123.973 60.0821C124.414 59.5874 124.94 58.6663 125.399 57.5746C125.806 56.6194 126.316 55.6641 126.519 55.4424C127.691 54.163 129.304 55.2206 129.304 57.2676C129.304 58.8028 128.812 59.2804 127.097 59.4339C126.486 59.4851 125.993 59.6045 125.993 59.7068C125.993 59.7921 126.536 59.9627 127.182 60.065C129.185 60.3721 129.729 59.7921 129.729 57.3187C129.729 55.6812 129.236 54.4871 128.302 53.873C127.419 53.276 126.57 53.3443 125.755 54.0777Z" fill="black"/>
<path d="M126.281 62.504C126.315 62.6574 126.791 62.8962 127.419 63.0838C129.202 63.6124 129.303 63.7147 129.303 65.096C129.303 66.051 129.253 66.3068 129.015 66.392C128.709 66.5114 121.408 65.9828 120.576 65.7781C120.05 65.6588 119.88 65.4371 119.71 64.6867C119.557 63.9194 119.286 64.1752 119.269 65.1131C119.269 65.6076 119.201 66.5455 119.133 67.2106C118.963 68.626 119.116 68.95 119.506 67.978C119.744 67.347 119.812 67.2958 120.423 67.2958C121.884 67.2958 128.862 67.995 128.964 68.1485C129.151 68.4384 128.845 70.3995 128.573 70.6553C128.438 70.7917 127.69 70.9963 126.926 71.0987C126.111 71.218 125.483 71.3886 125.432 71.525C125.381 71.6785 125.84 71.7296 127.3 71.7296H129.253L129.456 68.7795C129.575 67.1765 129.762 65.1983 129.881 64.4139C130.034 63.4248 130.034 62.9815 129.915 62.9473C129.813 62.9132 128.947 62.7598 127.979 62.5722C126.485 62.2993 126.247 62.2823 126.281 62.504Z" fill="black"/>
<path d="M119.54 73.3317C118.063 73.9797 117.078 75.5315 117.078 77.2368C117.078 78.4476 117.367 79.1638 118.165 79.9482C118.912 80.6815 119.846 81.0737 122.766 81.8752C125.534 82.6426 125.704 82.7108 125.772 83.1883C125.856 83.8704 126.111 83.6146 126.451 82.5062C126.824 81.2784 126.722 80.9544 126.213 81.6706C126.026 81.9264 125.721 82.131 125.517 82.131C124.855 82.131 120.236 80.7327 119.404 80.2893C118.352 79.7266 117.757 78.7545 117.757 77.629C117.757 76.7935 118.182 75.7703 118.725 75.2757C119.218 74.8324 120.219 74.4572 120.949 74.4572C121.663 74.4572 127.045 75.9067 127.402 76.1966C127.503 76.2989 127.605 76.64 127.605 76.9469C127.605 77.2709 127.656 77.5267 127.741 77.5267C127.877 77.5267 128.811 74.2355 128.692 74.1332C128.658 74.0991 128.488 74.1844 128.318 74.3378C128.149 74.5084 127.877 74.6277 127.707 74.6277C127.554 74.6277 126.213 74.2867 124.753 73.8603C121.934 73.0418 120.508 72.9054 119.54 73.3317Z" fill="black"/>
<path d="M114.973 83.053C113.614 85.5768 113.343 86.3442 113.343 87.7255C113.343 89.2262 113.852 90.3175 115.024 91.3748C116.11 92.3639 117.418 92.8755 118.793 92.8755C120.898 92.8755 122.461 91.4942 124.108 88.1689C125.075 86.1907 125.194 85.7303 124.566 86.3101C124.124 86.7023 124.124 86.6853 119.71 84.4002L116.144 82.5585L116.059 81.8763L115.974 81.1942L114.973 83.053ZM119.506 85.9008C121.985 87.1798 123.53 88.0666 123.53 88.22C123.53 89.0045 122.155 90.6074 121.017 91.1361C119.812 91.6818 118.386 91.5965 116.959 90.9144C114.209 89.5502 113.343 87.4185 114.531 84.8947C114.803 84.3149 115.126 83.8374 115.261 83.8374C115.397 83.8374 117.299 84.7583 119.506 85.9008Z" fill="black"/>
<path d="M109.88 91.8654C109.354 92.633 108.946 93.2812 108.997 93.3323C109.031 93.3835 109.218 93.3323 109.405 93.23C109.609 93.1277 109.863 93.0424 109.999 93.0424C110.203 93.0424 116.604 97.4774 117.164 98.0062C117.249 98.0915 117.3 98.4326 117.283 98.7567C117.249 99.0808 117.266 99.3538 117.317 99.3538C117.47 99.3538 119.304 96.5904 119.219 96.488C119.151 96.4369 119.015 96.488 118.913 96.5904C118.794 96.7098 118.54 96.7951 118.336 96.7951C118.132 96.7951 116.417 95.6863 114.448 94.2876C111.035 91.8483 110.95 91.763 111.001 91.2342C111.018 90.9272 111.001 90.6372 110.95 90.586C110.899 90.5349 110.424 91.1148 109.88 91.8654Z" fill="black"/>
<path d="M106.196 96.6605C103.649 97.9906 102.376 101.094 103.326 103.652C103.785 104.897 104.973 106.21 106.179 106.807C107.486 107.455 109.303 107.489 110.458 106.875C114.159 104.948 114.872 100.242 111.867 97.479C110.814 96.507 109.779 96.1148 108.318 96.1148C107.452 96.1148 107.062 96.2171 106.196 96.6605ZM108.675 97.7348C110.865 98.3146 112.444 99.6618 112.937 101.35C113.259 102.493 113.14 103.328 112.495 104.351C111.782 105.494 110.797 105.903 109.116 105.784C105.449 105.545 102.749 102.288 103.989 99.6106C104.413 98.6898 105.16 98.0247 106.06 97.7348C107.045 97.4278 107.469 97.4278 108.675 97.7348Z" fill="black"/>
</svg>
